<svg width="30" height="20" viewBox="0 0 30 20" fill="none" xmlns="http://www.w3.org/2000/svg">
<path d="M29.4827 19.9999H0.517265C0.231621 19.9999 0 19.7642 0 19.4736V0.526337C0 0.235683 0.231621 5.8224e-08 0.517265 5.8224e-08H29.4827C29.7684 5.8224e-08 30 0.235683 30 0.526337V19.4736C29.9999 19.7643 29.7683 19.9999 29.4827 19.9999Z" fill="#FF4B55"/>
<path d="M4.98071 3.12758L5.47383 4.63206L7.03242 4.64435C7.23422 4.6459 7.31789 4.90799 7.15553 5.02992L5.90174 5.97199L6.37184 7.48411C6.43266 7.67991 6.21364 7.84178 6.04946 7.72242L4.78149 6.80013L3.51352 7.72236C3.34934 7.84178 3.13032 7.67979 3.19114 7.48405L3.66124 5.97193L2.40745 5.02992C2.24509 4.90793 2.32876 4.6459 2.53056 4.64435L4.08915 4.63206L4.58227 3.12758C4.64614 2.93273 4.9169 2.93273 4.98071 3.12758Z" fill="#FFE15A"/>
<path d="M10.6406 3.49826L10.9942 3.98894L11.5648 3.80734C11.6387 3.78385 11.6995 3.86958 11.6542 3.93344L11.3049 4.42716L11.6509 4.92327C11.6958 4.98748 11.6344 5.0728 11.5607 5.04877L10.9912 4.86329L10.6345 5.35153C10.5883 5.41473 10.4896 5.3817 10.4893 5.303L10.4866 4.69456L9.92003 4.50014C9.84673 4.47492 9.84703 4.36927 9.92056 4.34458L10.4883 4.15404L10.495 3.54566C10.4958 3.46702 10.5948 3.43476 10.6406 3.49826Z" fill="#FFE15A"/>
<path d="M8.48793 2.0359L9.08236 2.1016L9.33596 1.55064C9.36883 1.47933 9.47195 1.49155 9.48777 1.56864L9.61 2.16414L10.2033 2.23927C10.2801 2.24898 10.3006 2.35261 10.2334 2.39178L9.71453 2.69406L9.82767 3.29146C9.84232 3.36885 9.75179 3.4206 9.69443 3.36772L9.25152 2.95902L8.72816 3.25307C8.66043 3.29117 8.58396 3.2195 8.61572 3.14766L8.86082 2.5927L8.42418 2.17702C8.3677 2.12348 8.411 2.02743 8.48793 2.0359Z" fill="#FFE15A"/>
<path d="M9.42764 7.93186L9.07403 8.42255L8.50339 8.24094C8.4295 8.21745 8.36874 8.30319 8.41397 8.36704L8.76331 8.86077L8.41726 9.35687C8.37243 9.42109 8.43378 9.50641 8.50749 9.48238L9.07696 9.2969L9.43374 9.78514C9.47991 9.84833 9.57864 9.8153 9.57893 9.7366L9.58157 9.12817L10.1482 8.93374C10.2215 8.90852 10.2212 8.80287 10.1476 8.77819L9.57987 8.58764L9.57319 7.97926C9.57225 7.90068 9.47341 7.86831 9.42764 7.93186Z" fill="#FFE15A"/>
<path d="M11.5806 6.55787L10.9861 6.62357L10.7325 6.07261C10.6997 6.0013 10.5965 6.01353 10.5807 6.09062L10.4584 6.68612L9.86511 6.76124C9.7883 6.77096 9.76785 6.87458 9.83505 6.91375L10.3539 7.21603L10.2408 7.81344C10.2261 7.89083 10.3166 7.94258 10.374 7.88969L10.8169 7.48099L11.3403 7.77504C11.408 7.81314 11.4845 7.74147 11.4527 7.66963L11.2076 7.11467L11.6442 6.69899C11.7009 6.64545 11.6576 6.5494 11.5806 6.55787Z" fill="#FFE15A"/>
</svg>
