<svg version="1.1" id="Layer_1" xmlns="http://www.w3.org/2000/svg" xmlns:xlink="http://www.w3.org/1999/xlink" x="0px" y="0px"
                    viewBox="0 0 64 64" enable-background="new 0 0 64 64" xml:space="preserve">
                    <g>
                      <rect id="_x31_4" x="0" y="11" fill="#FFFFFF" width="64" height="42" />
                      <polygon id="_x31_3" fill="#CF142B" points="28.8,36.2 28.8,53 35.2,53 35.2,36.2 64,36.2 64,27.8 35.2,27.8 35.2,11 28.8,11
                                                      28.8,27.8 0,27.8 0,36.2 	" />
                      <polygon id="_x31_2" fill="#00247D" points="37.3,24.6 37.3,11 58,11 	" />
                      <polygon id="_x31_1" fill="#00247D" points="37.3,39.4 37.3,53 58,53 	" />
                      <polygon id="_x31_0" fill="#00247D" points="26.7,39.4 26.7,53 5.9,53 	" />
                      <polygon id="_x39_" fill="#00247D" points="26.7,24.6 26.7,11 5.9,11 	" />
                      <polygon id="_x38_" fill="#00247D" points="0,14.9 0,25 15.4,25 	" />
                      <polygon id="_x37_" fill="#00247D" points="64,14.9 64,25 48.6,25 	" />
                      <polygon id="_x36_" fill="#00247D" points="64,49.1 64,39 48.6,39 	" />
                      <polygon id="_x35_" fill="#00247D" points="0,49.1 0,39 15.4,39 	" />
                      <polyline id="_x34_" fill="#CF142B" points="64,11 60.4,11 39.1,25 42.7,25 64,11 	" />
                      <polyline id="_x33_" fill="#CF142B" points="24.8,39 21.3,39 0,53 3.6,53 24.9,39 	" />
                      <polygon id="_x32_" fill="#CF142B" points="17.8,25 21.3,25 0,11 0,13.3 	" />
                      <polygon id="_x31_" fill="#CF142B" points="46.2,39 42.6,39 64,53 64,50.7 	" />
                    </g>
                  </svg>