<svg width="36" height="14" viewBox="0 0 36 14" version="1.1" xmlns="http://www.w3.org/2000/svg" xmlns:xlink="http://www.w3.org/1999/xlink">
<title>Group 175</title>
<desc>Created using Figma</desc>
<g id="Canvas" transform="translate(8591 -24395)">
<rect x="-8591" y="24395" width="36" height="14" fill="#FFFFFF"/>
<clipPath id="clip-0" clip-rule="evenodd">
<path d="M -9308 24156L -8184 24156L -8184 25334L -9308 25334L -9308 24156Z" fill="#FFFFFF"/>
</clipPath>
<g id="&#208;&#154;&#208;&#176;&#209;&#128;&#209;&#130;&#208;&#190;&#209;&#135;&#208;&#186;&#208;&#184;_&#209;&#130;&#208;&#190;&#208;&#178;&#208;&#176;&#209;&#128;&#208;&#176;_&#208;&#186;&#208;&#187;&#208;&#184;&#208;&#181;&#208;&#189;&#209;&#130;&#209;&#129;&#208;&#186;&#208;&#176;&#209;&#143;_&#209;&#135;&#208;&#176;&#209;&#129;&#209;&#130;&#209;&#140;_&#208;&#180;&#208;&#181;&#209;&#129;&#208;&#186;&#209;&#130;&#208;&#190;&#208;&#191; &#209;&#129;&#208;&#178;&#208;&#181;&#209;&#128;&#208;&#189;&#209;&#131;&#209;&#130;&#209;&#139;&#208;&#185;" clip-path="url(#clip-0)">
<g id="Rectangle">
<use xlink:href="#path0_fill" transform="translate(-9300 24317)" fill="#FFFFFF"/>
<mask id="mask0_outline_ins">
<use xlink:href="#path0_fill" fill="white" transform="translate(-9300 24317)"/>
</mask>
<g mask="url(#mask0_outline_ins)">
<use xlink:href="#path1_stroke_2x" transform="translate(-9300 24317)" fill="#E8E8E8"/>
</g>
</g>
<g id="Group 179">
<g id="Group 176">
<g id="Group 175">
<g id="VAT">
<use xlink:href="#path2_fill" transform="translate(-8579.01 24398.1)" fill="#303030"/>
<use xlink:href="#path3_fill" transform="translate(-8579.01 24398.1)" fill="#303030"/>
<use xlink:href="#path4_fill" transform="translate(-8579.01 24398.1)" fill="#303030"/>
</g>
<g id="$">
<use xlink:href="#path5_fill" transform="translate(-8586.99 24395)" fill="#303030"/>
</g>
<g id="Rectangle 15">
<mask id="mask1_outline_ins">
<use xlink:href="#path6_fill" fill="white" transform="translate(-8591 24395)"/>
</mask>
<g mask="url(#mask1_outline_ins)">
<use xlink:href="#path7_stroke_2x" transform="translate(-8591 24395)" fill="#FF1414"/>
</g>
</g>
<g id="Line 2.9">
<use xlink:href="#path8_stroke" transform="matrix(0.978234 -0.207504 0.207504 0.978234 -8590 24404)" fill="#FF1414"/>
</g>
</g>
</g>
</g>
</g>
</g>
<defs>
<path id="path0_fill" d="M 0 0L 1108 0L 1108 102L 0 102L 0 0Z"/>
<path id="path1_stroke_2x" d="M 0 0L 0 -1L -1 -1L -1 0L 0 0ZM 1108 0L 1109 0L 1109 -1L 1108 -1L 1108 0ZM 1108 102L 1108 103L 1109 103L 1109 102L 1108 102ZM 0 102L -1 102L -1 103L 0 103L 0 102ZM 0 1L 1108 1L 1108 -1L 0 -1L 0 1ZM 1107 0L 1107 102L 1109 102L 1109 0L 1107 0ZM 1108 101L 0 101L 0 103L 1108 103L 1108 101ZM 1 102L 1 0L -1 0L -1 102L 1 102Z"/>
<path id="path2_fill" d="M 2.81445 7.87402L 0 0L 1.72412 0L 3.7168 5.82764L 5.64502 0L 7.33154 0L 4.51172 7.87402L 2.81445 7.87402Z"/>
<path id="path3_fill" d="M 14.2696 7.87402L 12.5401 7.87402L 11.8526 6.08545L 8.7051 6.08545L 8.0552 7.87402L 6.36868 7.87402L 9.43557 0L 11.1167 0L 14.2696 7.87402ZM 11.3423 4.75879L 10.2574 1.83691L 9.19387 4.75879L 11.3423 4.75879Z"/>
<path id="path4_fill" d="M 15.917 7.87402L 15.917 1.33203L 13.5806 1.33203L 13.5806 0L 19.8379 0L 19.8379 1.33203L 17.5069 1.33203L 17.5069 7.87402L 15.917 7.87402Z"/>
<path id="path5_fill" d="M 5.01465 9.56885C 5.01465 9.22184 4.91732 8.94678 4.72266 8.74365C 4.53223 8.5363 4.20638 8.34587 3.74512 8.17236C 3.28385 7.99886 2.88607 7.82747 2.55176 7.6582C 2.21745 7.4847 1.92969 7.28792 1.68848 7.06787C 1.4515 6.84359 1.2653 6.58122 1.12988 6.28076C 0.998698 5.98031 0.933105 5.62272 0.933105 5.20801C 0.933105 4.49284 1.16162 3.90674 1.61865 3.44971C 2.07568 2.99268 2.68294 2.72607 3.44043 2.6499L 3.44043 1.2915L 4.45605 1.2915L 4.45605 2.66895C 5.20508 2.77474 5.79118 3.08789 6.21436 3.6084C 6.63753 4.12467 6.84912 4.79541 6.84912 5.62061L 5.01465 5.62061C 5.01465 5.11279 4.90885 4.73405 4.69727 4.48438C 4.48991 4.23047 4.21061 4.10352 3.85938 4.10352C 3.51237 4.10352 3.24365 4.20296 3.05322 4.40186C 2.86279 4.59652 2.76758 4.86735 2.76758 5.21436C 2.76758 5.53597 2.86068 5.79411 3.04688 5.98877C 3.23307 6.18343 3.57796 6.38232 4.08154 6.58545C 4.58936 6.78857 5.00618 6.98112 5.33203 7.16309C 5.65788 7.34082 5.93294 7.54395 6.15723 7.77246C 6.38151 7.99674 6.5529 8.25488 6.67139 8.54688C 6.78988 8.83464 6.84912 9.17106 6.84912 9.55615C 6.84912 10.2756 6.62484 10.8595 6.17627 11.3081C 5.7277 11.7567 5.10986 12.0212 4.32275 12.1016L 4.32275 13.3647L 3.31348 13.3647L 3.31348 12.1079C 2.44596 12.0148 1.77311 11.708 1.29492 11.1875C 0.820964 10.6628 0.583984 9.96663 0.583984 9.09912L 2.41846 9.09912C 2.41846 9.6027 2.53695 9.98991 2.77393 10.2607C 3.01514 10.5273 3.36003 10.6606 3.80859 10.6606C 4.18099 10.6606 4.4751 10.5633 4.69092 10.3687C 4.90674 10.1698 5.01465 9.90316 5.01465 9.56885Z"/>
<path id="path6_fill" d="M 0 7C 0 3.13401 3.13401 0 7 0L 29 0C 32.866 0 36 3.13401 36 7C 36 10.866 32.866 14 29 14L 7 14C 3.13401 14 0 10.866 0 7Z"/>
<path id="path7_stroke_2x" d="M 7 1L 29 1L 29 -1L 7 -1L 7 1ZM 29 13L 7 13L 7 15L 29 15L 29 13ZM 7 13C 3.68629 13 1 10.3137 1 7L -1 7C -1 11.4183 2.58172 15 7 15L 7 13ZM 35 7C 35 10.3137 32.3137 13 29 13L 29 15C 33.4183 15 37 11.4183 37 7L 35 7ZM 29 1C 32.3137 1 35 3.68629 35 7L 37 7C 37 2.58172 33.4183 -1 29 -1L 29 1ZM 7 -1C 2.58172 -1 -1 2.58172 -1 7L 1 7C 1 3.68629 3.68629 1 7 1L 7 -1Z"/>
<path id="path8_stroke" d="M -0.00568026 0.499968L 33.0319 0.875316L 33.0433 -0.124619L 0.00568026 -0.499968L -0.00568026 0.499968Z"/>
</defs>
</svg>
