<svg width="30" height="20" viewBox="0 0 30 20" fill="none" xmlns="http://www.w3.org/2000/svg">
<path d="M29.4827 19.9999H0.517744C0.232105 19.9999 0.000488281 19.7642 0.000488281 19.4736V0.526337C0.000488281 0.235683 0.232105 5.8224e-08 0.517744 5.8224e-08H29.4827C29.7684 5.8224e-08 30 0.235683 30 0.526337V19.4736C29.9999 19.7642 29.7683 19.9999 29.4827 19.9999Z" fill="#41479B"/>
<path d="M29.9999 0.526337C29.9999 0.235683 29.7683 5.8224e-08 29.4827 5.8224e-08H27.1686L17.5863 6.38825V5.8224e-08H12.414V6.38825L2.8318 5.8224e-08H0.517744C0.232105 5.8224e-08 0.000488281 0.235683 0.000488281 0.526337V1.88755L8.22157 7.36837H0.000488281V12.6315H8.22157L0.000488281 18.1124V19.4736C0.000488281 19.7642 0.232105 19.9999 0.517744 19.9999H2.83186L12.4141 13.6117V19.9999H17.5864V13.6117L27.1687 19.9999H29.4828C29.7684 19.9999 30 19.7642 30 19.4736V18.1124L21.779 12.6316H29.9999V7.36843H21.7789L29.9999 1.88755V0.526337Z" fill="#F5F5F5"/>
<path d="M29.9999 8.42104H16.5519V5.8224e-08H13.4485V8.42104H0.000488281V11.5789H13.4485V19.9999H16.5519V11.5789H29.9999V8.42104Z" fill="#FF4B55"/>
<path d="M10.4855 12.6316L0.0151367 19.5475C0.0517571 19.8017 0.25771 20 0.517686 20H1.23011L12.3856 12.6317H10.4855V12.6316Z" fill="#FF4B55"/>
<path d="M20.296 12.6316H18.396L29.5352 19.9891C29.7948 19.961 29.9997 19.7453 29.9997 19.4736V19.0409L20.296 12.6316Z" fill="#FF4B55"/>
<path d="M0 1.10728L9.47906 7.36836H11.3791L0.301342 0.0512696C0.124392 0.134918 0 0.314677 0 0.526273V1.10728Z" fill="#FF4B55"/>
<path d="M19.486 7.36837L29.9815 0.435773C29.9379 0.190013 29.7364 2.5473e-08 29.4822 2.5473e-08H28.7412L17.5859 7.36837H19.486Z" fill="#FF4B55"/>
</svg>
