<svg width="36" height="14" viewBox="0 0 36 14"
     version="1.1" xmlns="http://www.w3.org/2000/svg"
     xmlns:xlink="http://www.w3.org/1999/xlink">
<title>Group 174</title>
<desc>Created using Figma</desc>
<g id="Canvas" transform="translate(8731 -24394)">
<rect x="-8731" y="24394" width="36" height="14" fill="#FFFFFF"/>
<clipPath id="clip-0" clip-rule="evenodd">
<path d="M -9308 24156L -8184 24156L -8184 25334L -9308 25334L -9308 24156Z" fill="#FFFFFF"/>
</clipPath>
<g id="&#208;&#154;&#208;&#176;&#209;&#128;&#209;&#130;&#208;&#190;&#209;&#135;&#208;&#186;&#208;&#184;_&#209;&#130;&#208;&#190;&#208;&#178;&#208;&#176;&#209;&#128;&#208;&#176;_&#208;&#186;&#208;&#187;&#208;&#184;&#208;&#181;&#208;&#189;&#209;&#130;&#209;&#129;&#208;&#186;&#208;&#176;&#209;&#143;_&#209;&#135;&#208;&#176;&#209;&#129;&#209;&#130;&#209;&#140;_&#208;&#180;&#208;&#181;&#209;&#129;&#208;&#186;&#209;&#130;&#208;&#190;&#208;&#191; &#209;&#129;&#208;&#178;&#208;&#181;&#209;&#128;&#208;&#189;&#209;&#131;&#209;&#130;&#209;&#139;&#208;&#185;" clip-path="url(#clip-0)">
<g id="Rectangle">
<use xlink:href="#path0_fill" transform="translate(-9300 24317)" fill="#FFFFFF"/>
<mask id="mask0_outline_ins">
<use xlink:href="#path0_fill" fill="white" transform="translate(-9300 24317)"/>
</mask>
<g mask="url(#mask0_outline_ins)">
<use xlink:href="#path1_stroke_2x" transform="translate(-9300 24317)" fill="#E8E8E8"/>
</g>
</g>
<g id="Group 179">
<g id="Group 174">
<g id="Ellipse">
<mask id="mask1_outline_ins">
<use xlink:href="#path2_fill" fill="white" transform="translate(-8731 24394)"/>
</mask>
<g mask="url(#mask1_outline_ins)">
<use xlink:href="#path3_stroke_2x" transform="translate(-8731 24394)" fill="#FF1414"/>
</g>
</g>
<g id="$">
<use xlink:href="#path4_fill" transform="translate(-8726.54 24395.8)" fill="#2B2B2B"/>
</g>
<g id="Line 2.7">
<use xlink:href="#path5_stroke" transform="matrix(0.677303 -0.735704 0.735704 0.677303 -8728 24405.7)" fill="#FF1414"/>
</g>
<g id="VAT">
<use xlink:href="#path6_fill" transform="translate(-8715.01 24397.1)" fill="#303030"/>
<use xlink:href="#path7_fill" transform="translate(-8715.01 24397.1)" fill="#303030"/>
<use xlink:href="#path8_fill" transform="translate(-8715.01 24397.1)" fill="#303030"/>
</g>
</g>
</g>
</g>
</g>
<defs>
<path id="path0_fill" d="M 0 0L 1108 0L 1108 102L 0 102L 0 0Z"/>
<path id="path1_stroke_2x" d="M 0 0L 0 -1L -1 -1L -1 0L 0 0ZM 1108 0L 1109 0L 1109 -1L 1108 -1L 1108 0ZM 1108 102L 1108 103L 1109 103L 1109 102L 1108 102ZM 0 102L -1 102L -1 103L 0 103L 0 102ZM 0 1L 1108 1L 1108 -1L 0 -1L 0 1ZM 1107 0L 1107 102L 1109 102L 1109 0L 1107 0ZM 1108 101L 0 101L 0 103L 1108 103L 1108 101ZM 1 102L 1 0L -1 0L -1 102L 1 102Z"/>
<path id="path2_fill" d="M 14 7C 14 10.866 10.866 14 7 14C 3.13401 14 0 10.866 0 7C 0 3.13401 3.13401 0 7 0C 10.866 0 14 3.13401 14 7Z"/>
<path id="path3_stroke_2x" d="M 13 7C 13 10.3137 10.3137 13 7 13L 7 15C 11.4183 15 15 11.4183 15 7L 13 7ZM 7 13C 3.68629 13 1 10.3137 1 7L -1 7C -1 11.4183 2.58172 15 7 15L 7 13ZM 1 7C 1 3.68629 3.68629 1 7 1L 7 -1C 2.58172 -1 -1 2.58172 -1 7L 1 7ZM 7 1C 10.3137 1 13 3.68629 13 7L 15 7C 15 2.58172 11.4183 -1 7 -1L 7 1Z"/>
<path id="path4_fill" d="M 3.4082 6.36719C 3.4082 6.10026 3.33333 5.88867 3.18359 5.73242C 3.03711 5.57292 2.78646 5.42643 2.43164 5.29297C 2.07682 5.15951 1.77083 5.02767 1.51367 4.89746C 1.25651 4.764 1.03516 4.61263 0.849609 4.44336C 0.667318 4.27083 0.524089 4.06901 0.419922 3.83789C 0.31901 3.60677 0.268555 3.33171 0.268555 3.0127C 0.268555 2.46257 0.444336 2.01172 0.795898 1.66016C 1.14746 1.30859 1.61458 1.10352 2.19727 1.04492L 2.19727 0L 2.97852 0L 2.97852 1.05957C 3.55469 1.14095 4.00553 1.38184 4.33105 1.78223C 4.65658 2.17936 4.81934 2.69531 4.81934 3.33008L 3.4082 3.33008C 3.4082 2.93945 3.32682 2.64811 3.16406 2.45605C 3.00456 2.26074 2.78971 2.16309 2.51953 2.16309C 2.2526 2.16309 2.0459 2.23958 1.89941 2.39258C 1.75293 2.54232 1.67969 2.75065 1.67969 3.01758C 1.67969 3.26497 1.7513 3.46354 1.89453 3.61328C 2.03776 3.76302 2.30306 3.91602 2.69043 4.07227C 3.08105 4.22852 3.40169 4.37663 3.65234 4.5166C 3.90299 4.65332 4.11458 4.80957 4.28711 4.98535C 4.45964 5.15788 4.59147 5.35645 4.68262 5.58105C 4.77376 5.80241 4.81934 6.0612 4.81934 6.35742C 4.81934 6.91081 4.64681 7.36003 4.30176 7.70508C 3.95671 8.05013 3.48145 8.25358 2.87598 8.31543L 2.87598 9.28711L 2.09961 9.28711L 2.09961 8.32031C 1.43229 8.2487 0.914714 8.0127 0.546875 7.6123C 0.182292 7.20866 0 6.67318 0 6.00586L 1.41113 6.00586C 1.41113 6.39323 1.50228 6.69108 1.68457 6.89941C 1.87012 7.10449 2.13542 7.20703 2.48047 7.20703C 2.76693 7.20703 2.99316 7.13216 3.15918 6.98242C 3.3252 6.82943 3.4082 6.62435 3.4082 6.36719Z"/>
<path id="path5_stroke" d="M 0 0L 13.2101 0L 13.2101 -1L 0 -1L 0 0Z"/>
<path id="path6_fill" d="M 2.81445 7.87402L 0 0L 1.72412 0L 3.7168 5.82764L 5.64502 0L 7.33154 0L 4.51172 7.87402L 2.81445 7.87402Z"/>
<path id="path7_fill" d="M 14.2696 7.87402L 12.5401 7.87402L 11.8526 6.08545L 8.7051 6.08545L 8.0552 7.87402L 6.36868 7.87402L 9.43557 0L 11.1167 0L 14.2696 7.87402ZM 11.3423 4.75879L 10.2574 1.83691L 9.19387 4.75879L 11.3423 4.75879Z"/>
<path id="path8_fill" d="M 15.917 7.87402L 15.917 1.33203L 13.5806 1.33203L 13.5806 0L 19.8379 0L 19.8379 1.33203L 17.5069 1.33203L 17.5069 7.87402L 15.917 7.87402Z"/>
</defs>
</svg>
